<mxfile host="app.diagrams.net" agent="Mozilla/5.0 (X11; Linux x86_64) AppleWebKit/537.36 (KHTML, like Gecko) Chrome/131.0.0.0 Safari/537.36" version="26.0.16">
  <diagram id="function_call_stack" name="Function Call Stack">
    <mxGraphModel dx="903" dy="550" grid="1" gridSize="10" guides="1" tooltips="1" connect="1" arrows="1" fold="1" page="1" pageScale="1" pageWidth="850" pageHeight="1100" math="0" shadow="0">
      <root>
        <mxCell id="0" />
        <mxCell id="1" parent="0" />
        <mxCell id="stack_outline" value="" style="rounded=0;whiteSpace=wrap;html=1;fillColor=none;strokeColor=#00562C;strokeWidth=2;fontStyle=1;fontSize=15;fontColor=#00331A;" parent="1" vertex="1">
          <mxGeometry x="200" y="100" width="150" height="400" as="geometry" />
        </mxCell>
        <mxCell id="dots1" value="..." style="text;html=1;strokeColor=#FF0000;fillColor=none;align=center;verticalAlign=middle;whiteSpace=wrap;rounded=0;fontColor=#00331A;strokeWidth=3;fontStyle=1;fontSize=15;" parent="1" vertex="1">
          <mxGeometry x="200" y="250" width="150" height="150" as="geometry" />
        </mxCell>
        <mxCell id="line1" value="" style="endArrow=none;html=1;rounded=0;strokeColor=#00562C;strokeWidth=2;entryX=1;entryY=0.25;entryDx=0;entryDy=0;exitX=0;exitY=0.25;exitDx=0;exitDy=0;fontStyle=1;fontSize=15;fontColor=#00331A;" parent="1" source="stack_outline" target="stack_outline" edge="1">
          <mxGeometry width="50" height="50" relative="1" as="geometry">
            <mxPoint x="200" y="200" as="sourcePoint" />
            <mxPoint x="350" y="200" as="targetPoint" />
          </mxGeometry>
        </mxCell>
        <mxCell id="line2" value="" style="endArrow=none;html=1;rounded=0;strokeColor=#00562C;strokeWidth=2;entryX=1;entryY=0.375;entryDx=0;entryDy=0;exitX=0;exitY=0.375;exitDx=0;exitDy=0;fontStyle=1;fontSize=15;fontColor=#00331A;" parent="1" source="stack_outline" target="stack_outline" edge="1">
          <mxGeometry width="50" height="50" relative="1" as="geometry">
            <mxPoint x="200" y="250" as="sourcePoint" />
            <mxPoint x="350" y="250" as="targetPoint" />
          </mxGeometry>
        </mxCell>
        <mxCell id="line3" value="" style="endArrow=none;html=1;rounded=0;strokeColor=#00562C;strokeWidth=2;entryX=1;entryY=0.5;entryDx=0;entryDy=0;exitX=0;exitY=0.5;exitDx=0;exitDy=0;fontStyle=1;fontSize=15;fontColor=#00331A;" parent="1" edge="1">
          <mxGeometry width="50" height="50" relative="1" as="geometry">
            <mxPoint x="200" y="304.0000000000001" as="sourcePoint" />
            <mxPoint x="349.9999999999999" y="304.0000000000001" as="targetPoint" />
          </mxGeometry>
        </mxCell>
        <mxCell id="line4" value="" style="endArrow=none;html=1;rounded=0;strokeColor=#00562C;strokeWidth=2;entryX=1;entryY=0.625;entryDx=0;entryDy=0;exitX=0;exitY=0.625;exitDx=0;exitDy=0;fontStyle=1;fontSize=15;fontColor=#00331A;" parent="1" edge="1">
          <mxGeometry width="50" height="50" relative="1" as="geometry">
            <mxPoint x="200" y="359.0000000000001" as="sourcePoint" />
            <mxPoint x="349.99999999999994" y="359" as="targetPoint" />
          </mxGeometry>
        </mxCell>
        <mxCell id="line5" value="" style="endArrow=none;html=1;rounded=0;strokeColor=#00562C;strokeWidth=2;entryX=1;entryY=0.75;entryDx=0;entryDy=0;exitX=0;exitY=0.75;exitDx=0;exitDy=0;fontStyle=1;fontSize=15;fontColor=#00331A;" parent="1" edge="1">
          <mxGeometry width="50" height="50" relative="1" as="geometry">
            <mxPoint x="200" y="388" as="sourcePoint" />
            <mxPoint x="349.99999999999994" y="388" as="targetPoint" />
          </mxGeometry>
        </mxCell>
        <mxCell id="local_vars_brace" value="" style="rounded=0;whiteSpace=wrap;html=1;fillColor=none;strokeColor=#FFFFFF;strokeWidth=2;dashed=1;fontStyle=1;fontSize=15;fontColor=#00331A;" parent="1" vertex="1">
          <mxGeometry x="180" y="270" width="20" height="50" as="geometry" />
        </mxCell>
        <mxCell id="FP_block" value="FP" style="rounded=0;whiteSpace=wrap;html=1;fillColor=#FF6666;strokeColor=#FF0000;fontStyle=1;fontSize=15;fontColor=#00331A;" parent="1" vertex="1">
          <mxGeometry x="135" y="354" width="30" height="30" as="geometry" />
        </mxCell>
        <mxCell id="LR_block" value="LR" style="rounded=0;whiteSpace=wrap;html=1;fillColor=#FF6666;strokeColor=#FF0000;fontStyle=1;fontSize=15;fontColor=#00331A;" parent="1" vertex="1">
          <mxGeometry x="100" y="374" width="30" height="30" as="geometry" />
        </mxCell>
        <mxCell id="fp_arrow" style="edgeStyle=orthogonalEdgeStyle;rounded=0;orthogonalLoop=1;jettySize=auto;html=1;exitX=1;exitY=0.5;exitDx=0;exitDy=0;strokeColor=#FF0000;entryX=0;entryY=0.675;entryDx=0;entryDy=0;entryPerimeter=0;fontStyle=1;fontSize=15;fontColor=#00331A;" parent="1" source="FP_block" edge="1">
          <mxGeometry relative="1" as="geometry">
            <Array as="points" />
            <mxPoint x="200" y="369" as="targetPoint" />
          </mxGeometry>
        </mxCell>
        <mxCell id="lr_arrow" style="edgeStyle=orthogonalEdgeStyle;rounded=0;orthogonalLoop=1;jettySize=auto;html=1;exitX=1;exitY=0.5;exitDx=0;exitDy=0;strokeColor=#FF0000;fontStyle=1;fontSize=15;fontColor=#00331A;" parent="1" source="LR_block" edge="1">
          <mxGeometry relative="1" as="geometry">
            <Array as="points">
              <mxPoint x="200" y="391" />
            </Array>
            <mxPoint x="200" y="391" as="targetPoint" />
          </mxGeometry>
        </mxCell>
        <mxCell id="stack_frame3_label" value="Stack&lt;br&gt;Frame 3" style="text;html=1;strokeColor=none;fillColor=none;align=center;verticalAlign=middle;whiteSpace=wrap;rounded=0;fontColor=#00331A;fontStyle=1;fontSize=15;" parent="1" vertex="1">
          <mxGeometry x="360" y="130" width="70" height="40" as="geometry" />
        </mxCell>
        <mxCell id="stack_frame2_label" value="Stack&lt;br&gt;Frame 2" style="text;html=1;strokeColor=none;fillColor=none;align=center;verticalAlign=middle;whiteSpace=wrap;rounded=0;fontColor=#00331A;fontStyle=1;fontSize=15;" parent="1" vertex="1">
          <mxGeometry x="390" y="285" width="70" height="40" as="geometry" />
        </mxCell>
        <mxCell id="stack_frame1_label" value="Stack&lt;br&gt;Frame 1" style="text;html=1;strokeColor=none;fillColor=none;align=center;verticalAlign=middle;whiteSpace=wrap;rounded=0;fontColor=#00331A;fontStyle=1;fontSize=15;" parent="1" vertex="1">
          <mxGeometry x="360" y="430" width="70" height="40" as="geometry" />
        </mxCell>
        <mxCell id="addresses_arrow" style="endArrow=classic;html=1;rounded=0;strokeColor=#FF0000;strokeWidth=2;fontStyle=1;fontSize=15;fontColor=#00331A;" parent="1" edge="1">
          <mxGeometry width="50" height="50" relative="1" as="geometry">
            <mxPoint x="479" y="100" as="sourcePoint" />
            <mxPoint x="479" y="500" as="targetPoint" />
          </mxGeometry>
        </mxCell>
        <mxCell id="addr_label" value="increasing addresses" style="text;html=1;strokeColor=none;fillColor=none;align=center;verticalAlign=middle;whiteSpace=wrap;rounded=0;fontColor=#00331A;rotation=90;fontStyle=1;fontSize=15;" parent="1" vertex="1">
          <mxGeometry x="449" y="290" width="130" height="30" as="geometry" />
        </mxCell>
        <mxCell id="rzXqg3DvNrWkiES8HZlL-1" value="" style="endArrow=none;html=1;rounded=0;strokeColor=#00562C;strokeWidth=2;entryX=1;entryY=0.5;entryDx=0;entryDy=0;exitX=0;exitY=0.5;exitDx=0;exitDy=0;fontStyle=1;fontSize=15;fontColor=#00331A;" edge="1" parent="1">
          <mxGeometry width="50" height="50" relative="1" as="geometry">
            <mxPoint x="200" y="120" as="sourcePoint" />
            <mxPoint x="350" y="120" as="targetPoint" />
          </mxGeometry>
        </mxCell>
        <mxCell id="rzXqg3DvNrWkiES8HZlL-3" value="" style="endArrow=none;html=1;rounded=0;strokeColor=#00562C;strokeWidth=2;entryX=1;entryY=0.5;entryDx=0;entryDy=0;exitX=0;exitY=0.5;exitDx=0;exitDy=0;fontStyle=1;fontSize=15;fontColor=#00331A;" edge="1" parent="1">
          <mxGeometry width="50" height="50" relative="1" as="geometry">
            <mxPoint x="200" y="140" as="sourcePoint" />
            <mxPoint x="350" y="140" as="targetPoint" />
          </mxGeometry>
        </mxCell>
        <mxCell id="rzXqg3DvNrWkiES8HZlL-4" value="" style="endArrow=none;html=1;rounded=0;strokeColor=#00562C;strokeWidth=2;entryX=1;entryY=0.5;entryDx=0;entryDy=0;exitX=0;exitY=0.5;exitDx=0;exitDy=0;fontStyle=1;fontSize=15;fontColor=#00331A;" edge="1" parent="1">
          <mxGeometry width="50" height="50" relative="1" as="geometry">
            <mxPoint x="200" y="160" as="sourcePoint" />
            <mxPoint x="350" y="160" as="targetPoint" />
          </mxGeometry>
        </mxCell>
        <mxCell id="rzXqg3DvNrWkiES8HZlL-5" value="" style="endArrow=none;html=1;rounded=0;strokeColor=#00562C;strokeWidth=2;entryX=1;entryY=0.5;entryDx=0;entryDy=0;exitX=0;exitY=0.5;exitDx=0;exitDy=0;fontStyle=1;fontSize=15;fontColor=#00331A;" edge="1" parent="1">
          <mxGeometry width="50" height="50" relative="1" as="geometry">
            <mxPoint x="200" y="180" as="sourcePoint" />
            <mxPoint x="350" y="180" as="targetPoint" />
          </mxGeometry>
        </mxCell>
        <mxCell id="rzXqg3DvNrWkiES8HZlL-6" value="" style="endArrow=none;html=1;rounded=0;strokeColor=#00562C;strokeWidth=2;entryX=1;entryY=0.5;entryDx=0;entryDy=0;exitX=0;exitY=0.5;exitDx=0;exitDy=0;fontStyle=1;fontSize=15;fontColor=#00331A;" edge="1" parent="1">
          <mxGeometry width="50" height="50" relative="1" as="geometry">
            <mxPoint x="200" y="235" as="sourcePoint" />
            <mxPoint x="350" y="235" as="targetPoint" />
          </mxGeometry>
        </mxCell>
        <mxCell id="rzXqg3DvNrWkiES8HZlL-7" value="" style="endArrow=none;html=1;rounded=0;strokeColor=#00562C;strokeWidth=2;entryX=1;entryY=0.5;entryDx=0;entryDy=0;exitX=0;exitY=0.5;exitDx=0;exitDy=0;fontStyle=1;fontSize=15;fontColor=#00331A;" edge="1" parent="1" source="rzXqg3DvNrWkiES8HZlL-26">
          <mxGeometry width="50" height="50" relative="1" as="geometry">
            <mxPoint x="200" y="266" as="sourcePoint" />
            <mxPoint x="350" y="266" as="targetPoint" />
          </mxGeometry>
        </mxCell>
        <mxCell id="rzXqg3DvNrWkiES8HZlL-8" value="" style="endArrow=none;html=1;rounded=0;strokeColor=#00562C;strokeWidth=2;entryX=1;entryY=0.5;entryDx=0;entryDy=0;exitX=0;exitY=0.5;exitDx=0;exitDy=0;fontStyle=1;fontSize=15;fontColor=#00331A;" edge="1" parent="1">
          <mxGeometry width="50" height="50" relative="1" as="geometry">
            <mxPoint x="200" y="285" as="sourcePoint" />
            <mxPoint x="350" y="285" as="targetPoint" />
          </mxGeometry>
        </mxCell>
        <mxCell id="rzXqg3DvNrWkiES8HZlL-9" value="" style="endArrow=none;html=1;rounded=0;strokeColor=#00562C;strokeWidth=2;entryX=1;entryY=0.5;entryDx=0;entryDy=0;exitX=0;exitY=0.5;exitDx=0;exitDy=0;fontStyle=1;fontSize=15;fontColor=#00331A;" edge="1" parent="1">
          <mxGeometry width="50" height="50" relative="1" as="geometry">
            <mxPoint x="200" y="323.17" as="sourcePoint" />
            <mxPoint x="350" y="323.17" as="targetPoint" />
          </mxGeometry>
        </mxCell>
        <mxCell id="rzXqg3DvNrWkiES8HZlL-10" value="" style="endArrow=none;html=1;rounded=0;strokeColor=#00562C;strokeWidth=2;entryX=1;entryY=0.5;entryDx=0;entryDy=0;exitX=0;exitY=0.5;exitDx=0;exitDy=0;fontStyle=1;fontSize=15;fontColor=#00331A;" edge="1" parent="1">
          <mxGeometry width="50" height="50" relative="1" as="geometry">
            <mxPoint x="200" y="342" as="sourcePoint" />
            <mxPoint x="350" y="342" as="targetPoint" />
          </mxGeometry>
        </mxCell>
        <mxCell id="rzXqg3DvNrWkiES8HZlL-11" value="" style="endArrow=none;html=1;rounded=0;strokeColor=#00562C;strokeWidth=2;entryX=1;entryY=0.5;entryDx=0;entryDy=0;exitX=0;exitY=0.5;exitDx=0;exitDy=0;fontStyle=1;fontSize=15;fontColor=#00331A;" edge="1" parent="1">
          <mxGeometry width="50" height="50" relative="1" as="geometry">
            <mxPoint x="200" y="373" as="sourcePoint" />
            <mxPoint x="350" y="373" as="targetPoint" />
          </mxGeometry>
        </mxCell>
        <mxCell id="rzXqg3DvNrWkiES8HZlL-14" value="" style="group;fontStyle=1;fontSize=15;fontColor=#00331A;" vertex="1" connectable="0" parent="1">
          <mxGeometry x="370" y="240" width="20" height="120" as="geometry" />
        </mxCell>
        <mxCell id="frame2_brace" value="" style="endArrow=none;html=1;rounded=0;strokeColor=#00CCCC;strokeWidth=2;curved=1;fontStyle=1;fontSize=15;fontColor=#00331A;" parent="rzXqg3DvNrWkiES8HZlL-14" edge="1">
          <mxGeometry width="50" height="50" relative="1" as="geometry">
            <mxPoint y="10" as="sourcePoint" />
            <mxPoint x="20" y="10" as="targetPoint" />
            <Array as="points">
              <mxPoint x="10" />
            </Array>
          </mxGeometry>
        </mxCell>
        <mxCell id="frame2_brace2" value="" style="endArrow=none;html=1;rounded=0;strokeColor=#00CCCC;strokeWidth=2;curved=1;fontStyle=1;fontSize=15;fontColor=#00331A;" parent="rzXqg3DvNrWkiES8HZlL-14" edge="1">
          <mxGeometry width="50" height="50" relative="1" as="geometry">
            <mxPoint y="110" as="sourcePoint" />
            <mxPoint x="20" y="110" as="targetPoint" />
            <Array as="points">
              <mxPoint x="10" y="120" />
            </Array>
          </mxGeometry>
        </mxCell>
        <mxCell id="frame2_brace_vert" value="" style="endArrow=none;html=1;rounded=0;strokeColor=#00CCCC;strokeWidth=2;fontStyle=1;fontSize=15;fontColor=#00331A;" parent="rzXqg3DvNrWkiES8HZlL-14" edge="1">
          <mxGeometry width="50" height="50" relative="1" as="geometry">
            <mxPoint x="20" y="110" as="sourcePoint" />
            <mxPoint x="20" y="10" as="targetPoint" />
          </mxGeometry>
        </mxCell>
        <mxCell id="rzXqg3DvNrWkiES8HZlL-15" value="" style="group;rotation=-180;fontStyle=1;fontSize=15;fontColor=#00331A;" vertex="1" connectable="0" parent="1">
          <mxGeometry x="170" y="270" width="20" height="50" as="geometry" />
        </mxCell>
        <mxCell id="rzXqg3DvNrWkiES8HZlL-16" value="" style="endArrow=none;html=1;rounded=0;strokeColor=#00CCCC;strokeWidth=2;curved=1;fontStyle=1;fontSize=15;fontColor=#00331A;" edge="1" parent="rzXqg3DvNrWkiES8HZlL-15">
          <mxGeometry width="50" height="50" relative="1" as="geometry">
            <mxPoint x="20" y="46" as="sourcePoint" />
            <mxPoint y="46" as="targetPoint" />
            <Array as="points">
              <mxPoint x="10" y="50" />
            </Array>
          </mxGeometry>
        </mxCell>
        <mxCell id="rzXqg3DvNrWkiES8HZlL-17" value="" style="endArrow=none;html=1;rounded=0;strokeColor=#00CCCC;strokeWidth=2;curved=1;fontStyle=1;fontSize=15;fontColor=#00331A;" edge="1" parent="rzXqg3DvNrWkiES8HZlL-15">
          <mxGeometry width="50" height="50" relative="1" as="geometry">
            <mxPoint x="20" y="4" as="sourcePoint" />
            <mxPoint y="4" as="targetPoint" />
            <Array as="points">
              <mxPoint x="10" />
            </Array>
          </mxGeometry>
        </mxCell>
        <mxCell id="rzXqg3DvNrWkiES8HZlL-18" value="" style="endArrow=none;html=1;rounded=0;strokeColor=#00CCCC;strokeWidth=2;fontStyle=1;fontSize=15;fontColor=#00331A;" edge="1" parent="rzXqg3DvNrWkiES8HZlL-15">
          <mxGeometry width="50" height="50" relative="1" as="geometry">
            <mxPoint y="4" as="sourcePoint" />
            <mxPoint y="46" as="targetPoint" />
          </mxGeometry>
        </mxCell>
        <mxCell id="rzXqg3DvNrWkiES8HZlL-20" value="Local Variable" style="text;html=1;strokeColor=none;fillColor=none;align=center;verticalAlign=middle;whiteSpace=wrap;rounded=0;fontColor=#00331A;fontStyle=1;fontSize=15;" vertex="1" parent="1">
          <mxGeometry x="80" y="270" width="70" height="40" as="geometry" />
        </mxCell>
        <mxCell id="rzXqg3DvNrWkiES8HZlL-23" value="&lt;span style=&quot;color: rgb(0, 51, 26); font-size: 15px; font-weight: 700;&quot;&gt;...&lt;/span&gt;" style="text;html=1;align=center;verticalAlign=middle;whiteSpace=wrap;rounded=0;" vertex="1" parent="1">
          <mxGeometry x="245" y="240" width="60" height="30" as="geometry" />
        </mxCell>
        <mxCell id="rzXqg3DvNrWkiES8HZlL-27" value="" style="endArrow=none;html=1;rounded=0;strokeColor=#00562C;strokeWidth=2;entryX=1;entryY=0.5;entryDx=0;entryDy=0;exitX=0;exitY=0.5;exitDx=0;exitDy=0;fontStyle=1;fontSize=15;fontColor=#00331A;" edge="1" parent="1" target="rzXqg3DvNrWkiES8HZlL-26">
          <mxGeometry width="50" height="50" relative="1" as="geometry">
            <mxPoint x="200" y="266" as="sourcePoint" />
            <mxPoint x="350" y="266" as="targetPoint" />
          </mxGeometry>
        </mxCell>
        <mxCell id="rzXqg3DvNrWkiES8HZlL-26" value="" style="rounded=0;whiteSpace=wrap;html=1;fillColor=#f8cecc;strokeColor=#b85450;" vertex="1" parent="1">
          <mxGeometry x="200" y="265" width="150" height="20" as="geometry" />
        </mxCell>
        <mxCell id="rzXqg3DvNrWkiES8HZlL-28" value="" style="rounded=0;whiteSpace=wrap;html=1;fillColor=#f8cecc;strokeColor=#b85450;" vertex="1" parent="1">
          <mxGeometry x="200" y="284" width="150" height="20" as="geometry" />
        </mxCell>
        <mxCell id="rzXqg3DvNrWkiES8HZlL-29" value="" style="rounded=0;whiteSpace=wrap;html=1;fillColor=#f8cecc;strokeColor=#b85450;" vertex="1" parent="1">
          <mxGeometry x="200" y="303" width="150" height="20" as="geometry" />
        </mxCell>
        <mxCell id="rzXqg3DvNrWkiES8HZlL-30" value="" style="rounded=0;whiteSpace=wrap;html=1;fillColor=#f8cecc;strokeColor=#b85450;" vertex="1" parent="1">
          <mxGeometry x="200" y="359" width="150" height="20" as="geometry" />
        </mxCell>
        <mxCell id="rzXqg3DvNrWkiES8HZlL-31" value="" style="rounded=0;whiteSpace=wrap;html=1;fillColor=#f8cecc;strokeColor=#b85450;" vertex="1" parent="1">
          <mxGeometry x="200" y="379" width="150" height="20" as="geometry" />
        </mxCell>
        <mxCell id="rzXqg3DvNrWkiES8HZlL-33" value="" style="endArrow=none;html=1;rounded=0;strokeColor=#00562C;strokeWidth=2;entryX=1;entryY=0.25;entryDx=0;entryDy=0;exitX=0;exitY=0.25;exitDx=0;exitDy=0;fontStyle=1;fontSize=15;fontColor=#00331A;" edge="1" parent="1">
          <mxGeometry width="50" height="50" relative="1" as="geometry">
            <mxPoint x="200" y="220" as="sourcePoint" />
            <mxPoint x="350" y="220" as="targetPoint" />
          </mxGeometry>
        </mxCell>
        <mxCell id="rzXqg3DvNrWkiES8HZlL-34" value="" style="endArrow=none;html=1;rounded=0;strokeColor=#00562C;strokeWidth=2;entryX=1;entryY=0.25;entryDx=0;entryDy=0;exitX=0;exitY=0.25;exitDx=0;exitDy=0;fontStyle=1;fontSize=15;fontColor=#00331A;" edge="1" parent="1">
          <mxGeometry width="50" height="50" relative="1" as="geometry">
            <mxPoint x="200" y="420" as="sourcePoint" />
            <mxPoint x="350" y="420" as="targetPoint" />
          </mxGeometry>
        </mxCell>
        <mxCell id="rzXqg3DvNrWkiES8HZlL-35" value="" style="endArrow=none;html=1;rounded=0;strokeColor=#00562C;strokeWidth=2;entryX=1;entryY=0.25;entryDx=0;entryDy=0;exitX=0;exitY=0.25;exitDx=0;exitDy=0;fontStyle=1;fontSize=15;fontColor=#00331A;" edge="1" parent="1">
          <mxGeometry width="50" height="50" relative="1" as="geometry">
            <mxPoint x="200" y="440" as="sourcePoint" />
            <mxPoint x="350" y="440" as="targetPoint" />
          </mxGeometry>
        </mxCell>
        <mxCell id="rzXqg3DvNrWkiES8HZlL-36" value="" style="endArrow=none;html=1;rounded=0;strokeColor=#00562C;strokeWidth=2;entryX=1;entryY=0.25;entryDx=0;entryDy=0;exitX=0;exitY=0.25;exitDx=0;exitDy=0;fontStyle=1;fontSize=15;fontColor=#00331A;" edge="1" parent="1">
          <mxGeometry width="50" height="50" relative="1" as="geometry">
            <mxPoint x="200" y="480" as="sourcePoint" />
            <mxPoint x="350" y="480" as="targetPoint" />
          </mxGeometry>
        </mxCell>
        <mxCell id="rzXqg3DvNrWkiES8HZlL-37" value="" style="endArrow=none;html=1;rounded=0;strokeColor=#00562C;strokeWidth=2;entryX=1;entryY=0.25;entryDx=0;entryDy=0;exitX=0;exitY=0.25;exitDx=0;exitDy=0;fontStyle=1;fontSize=15;fontColor=#00331A;" edge="1" parent="1">
          <mxGeometry width="50" height="50" relative="1" as="geometry">
            <mxPoint x="200" y="460" as="sourcePoint" />
            <mxPoint x="350" y="460" as="targetPoint" />
          </mxGeometry>
        </mxCell>
      </root>
    </mxGraphModel>
  </diagram>
</mxfile>
